<svg xmlns="http://www.w3.org/2000/svg" width="18" height="18" viewBox="0 0 18 20"><title>  logo_googleg_48dp</title><desc>  Created with Sketch.</desc><g fill="none"><g transform="translate(-61 -35)translate(42 23)translate(19 12.571429)"><path d="M17.6 9.6C17.6 9 17.6 8.3 17.5 7.7L9 7.7 9 11.4 13.8 11.4C13.6 12.5 13 13.5 12 14.2L12 16.6 15 16.6C16.7 14.9 17.6 12.5 17.6 9.6L17.6 9.6Z" fill="#4285F4"/><path d="M9 18.9C11.4 18.9 13.5 18 15 16.6L12 14.2C11.2 14.8 10.2 15.1 9 15.1 6.7 15.1 4.7 13.4 4 11.2L1 11.2 1 13.7C2.4 16.7 5.5 18.9 9 18.9L9 18.9Z" fill="#34A853"/><path d="M4 11.2C3.8 10.7 3.7 10.1 3.7 9.4 3.7 8.8 3.8 8.2 4 7.6L4 5.2 1 5.2C0.3 6.5 0 7.9 0 9.4 0 11 0.3 12.4 1 13.7L4 11.2 4 11.2Z" fill="#FBBC05"/><path d="M9 3.8C10.3 3.8 11.5 4.2 12.4 5.2L15 2.5C13.5 0.9 11.4 0 9 0 5.5 0 2.4 2.1 1 5.2L4 7.6C4.7 5.4 6.7 3.8 9 3.8L9 3.8Z" fill="#EA4335"/><polygon points="0 0 18 0 18 18.9 0 18.9"/></g></g></svg>
